<svg xmlns="http://www.w3.org/2000/svg" xmlns:xlink="http://www.w3.org/1999/xlink" viewBox="0 0 163.89 168.29"><defs><style>.cls-1{opacity:0.9;}.cls-2{fill:#724e30;}.cls-3{fill:url(#linear-gradient);}.cls-4{fill:url(#linear-gradient-2);}.cls-5{fill:#a67c52;}.cls-6{fill:#e6e6e6;}</style><linearGradient id="linear-gradient" x1="81.91" y1="133.41" x2="81.01" y2="-76.56" gradientUnits="userSpaceOnUse"><stop offset="0.08" stop-color="#a67c52"/><stop offset="0.99" stop-color="#754c24"/></linearGradient><linearGradient id="linear-gradient-2" x1="80.98" y1="117.66" x2="80.38" y2="78.08" gradientUnits="userSpaceOnUse"><stop offset="0.06" stop-color="#e6e6e6"/><stop offset="0.25" stop-color="#e5e4e3"/><stop offset="0.4" stop-color="#e0dcd8"/><stop offset="0.54" stop-color="#d9d0c7"/><stop offset="0.68" stop-color="#cebfaf"/><stop offset="0.81" stop-color="#c1a890"/><stop offset="0.93" stop-color="#b08d6a"/><stop offset="1" stop-color="#a67c52"/></linearGradient></defs><title>Asset 1</title><g id="Layer_2" data-name="Layer 2"><g id="icon-cut-guide_Image" data-name="icon-cut-guide Image" class="cls-1"><path id="feet" class="cls-2" d="M39.24,146.54c6.95,12.88-21.54,20.59-11,21.16,11.71.63,41.58.85,43.5-4.65,3.92-11.23-6.6-18.55,12.58-16.5,21.91,2.34,7.64,8.24,8.21,16.29.52,7.41,40.36,5.93,49.79,3.39,9.15-2.46-14.91-9.91-9.78-27.29C134.55,132.1,39.24,146.54,39.24,146.54Z"/><path id="body" class="cls-3" d="M29,77.62c-3.05,2.09-.47-.77-4.36,3.36C24.28,81.39,31,28.62,6.2,34.92c-8.33,2.11,1,66.4.51,67.18-13.67,23-6.37,45.6,21.21,52,53.11,12.27,77.7,9,104.26-1.33,44-17.17,32.42-34.12,21.76-56-.94-1.93,14.89-53,2.6-55.93-17.07-4.13-20.9,38.69-28.67,33.09-2.49-1.8-46.53-5.79-56.62-4.7S46.25,65.81,29,77.62Z"/><path id="tummy" class="cls-4" d="M83.47,89c-11.17.41-31.29,3-38.27,23-.09.25-2.75,2.92-3.64,4.73-.14.29,2.41-1.25,2.32-.94a40.72,40.72,0,0,0-1.08,4.6c-.1.55-.58,3.74-3.77,3.28-2.66-.38,3.29,1.59,6.93,0,1.3-.57-7.54,6.66-7.41,8,.06.64,6.47-3.69,6.23-1.36a12.9,12.9,0,0,1-2.68,6.41c-.36.47,8.39-6.56,4.44-2.52-3.43,3.51-1.41,5.95-1.13,6.53,3.8,7.79,12.72,14.72,24.58,17.38,2.83.63-1.19-3.39-1.13-3.41,2.84-.5,6.81,4.51,8,4.65,1,.12-.83-5.35-.71-5.35,3.79,0,5,6.56,5.21,6.56.48,0,2.05-3.67,2.6-4.75.18-.35,1.66.33,1.55,1.85-.17,2.57-3.44,2.53,4.52,1.23,10.17-1.67,17.63-5.19,23.19-10.35.32-.3-1-5-.36-3.69.84,1.77,3,2,2.72,1.62-.89-1.31-1.84-3.18-.95-6.82.21-.88,2.61,4.45,2.86,4.13a28.78,28.78,0,0,0,6.13-21.15,42.27,42.27,0,0,0-3.81-13.06c-.08-.16-1.64,0-2.54-.92-1.33-1.33,2-.41,1.89-.61-.84-1.23-4.89-1.17-4.64-1.17s-.62-2.35,2.49-1.11c.38.15-2.18-2.39-5.62-3.08-1-.2,4.17-.71,3.61-.81a27.31,27.31,0,0,1-5.8-2.42c-.24-.25,4.34,1.14,4.1.9-8.94-9-21.46-11.56-29.62-11.36"/><path id="head" class="cls-5" d="M86.19,0a61.16,61.16,0,0,0-7.07.48c-15.24,2-22.11,9.44-28,14.26-1.47,1.21-7.73-1.06-13.43-4.05-4.14-2.18-6.94,10.71-3.85,17.05,1.18,2.42-3,5.6-5.7,7.77C12.6,48.26,8.28,79.81,25.8,82.12c28.95,3.81,47.57-3.75,57.36-4.27,11-.59,30.31,14.72,57.53.89C154.76,71.59,157.47,42,136,30.68c-2.67-1.41-1.77-2.66-2.36-3.62s1.57-15-2.45-17.67c-1.62-1.06-9.63,4.87-11.1,4.14C111,9.09,110.94-.29,86.19,0Z"/><path id="arm_left" data-name="arm left" class="cls-2" d="M21.57,43.13c.44-.35-3.35-8.25-6.57-10.29-5.71-3.62-11.91-.3-12.71,3.58C.12,46.88,5.82,102.54,6.71,101.95S3.72,38.26,8,35.55C14.62,31.41,20.53,43.94,21.57,43.13Z"/><path id="arm_right" data-name="arm right" class="cls-2" d="M148.48,43.54c-.43-.7-.53-2.09,2.69-4.12,5.71-3.62,12.58-.36,12.71,3.58.36,10.54-9.14,55.25-10.19,55.07-.84-.15,9.46-55,4.45-55.92C150.19,40.66,149,44.34,148.48,43.54Z"/><path id="stripe" class="cls-2" d="M84.67,13.25c1.42,1.24,1.78,1.87,4.26-1.55a34.38,34.38,0,0,0,5-10.26C94.26-.43,80.76.19,78.27,1.12S84.67,13.25,84.67,13.25Z"/><path id="ear_right" data-name="ear right" class="cls-2" d="M122.58,18.12c-1.51-.78-.87-2.38,7.19-6.82,2.07-1.14,2.84,8.55,1.51,11.35C130.65,24,122.58,18.12,122.58,18.12Z"/><path id="ear_left" data-name="ear left" class="cls-2" d="M46,19c1.51-.78,0-1.85-8.7-6.22-3.2-1.61-2.49,11.25-1.54,13.66C36.3,27.77,46,19,46,19Z"/><path id="eye_left" data-name="eye left" class="cls-6" d="M54,27.91c-11.81,5-12.34,24.55.77,26.39s27.76-7.76,28-20.19C83,24.28,63.26,24,54,27.91Z"/><path id="eye_right" data-name="eye right" class="cls-6" d="M118.56,27.91c11.81,5,12.34,24.55-.77,26.39S90,46.54,89.77,34.11C89.57,24.28,109.31,24,118.56,27.91Z"/><path id="pupil_left" data-name="pupil left" d="M67.44,27.24s-16.57.18-19.44,11c-3.46,13,10.92,16,19.62,12.83s13-20.22,10.57-19.43c-1,.31-7.38,14.81-16.78,10.88C53.77,39.29,58.74,31,67.53,27.24"/><path id="pupil_right" data-name="pupil right" d="M104.36,27.24s16.57.18,19.44,11c3.46,13-10.92,16-19.62,12.83s-13-20.22-10.57-19.43c1,.31,7.38,14.81,16.78,10.88,7.64-3.19,2.66-11.51-6.13-15.24"/><path id="eyebrow_right" data-name="eyebrow, right" d="M96.39,17.42c7.69-8.5,17.45.2,23.26,6.14.89.91-13.08-11.22-23-3.65C94.69,21.41,95.94,17.92,96.39,17.42Z"/><path id="eyebrow_left" data-name="eyebrow, left" d="M77.21,15.45c-7.7-3.32-16.56,2.71-22.79,8.32-1.12,1,16.75-9.67,22.79-4.38C79.05,21,77.85,15.73,77.21,15.45Z"/><path id="nose" class="cls-2" d="M85.61,55.31c3.79-.11,4.91.6,5.09,2.38s-3.91,4-5,4c-1.36.05-5.74-2-5.56-3.63C80.39,56,81.88,55.41,85.61,55.31Z"/><path id="mouth" class="cls-2" d="M85.32,62.09c-.64,0,.55,4.21-2.34,6.74-7.72,6.76-14.15,6.67-14,6.69,5.14.79,13.58,1.42,15.89,1.48,2.52.06,11-1.82,16.43-2.18,1.35-.09-5.33.93-13.41-5.91-3.3-2.79-1.81-6.78-2.43-6.76"/></g></g></svg>