<?xml version="1.0" standalone="no"?>
<!DOCTYPE svg PUBLIC "-//W3C//DTD SVG 20010904//EN"
 "http://www.w3.org/TR/2001/REC-SVG-20010904/DTD/svg10.dtd">
<svg version="1.0" xmlns="http://www.w3.org/2000/svg"
 width="299.000000pt" height="299.000000pt" viewBox="0 0 299.000000 299.000000"
 preserveAspectRatio="xMidYMid meet">
<metadata>
Created by potrace 1.11, written by Peter Selinger 2001-2013
</metadata>
<g transform="translate(0.000000,299.000000) scale(0.100000,-0.100000)"
fill="#000000" stroke="none">
<path d="M1426 2824 c-122 -24 -193 -65 -339 -197 -44 -40 -55 -40 -163 13
-35 16 -67 30 -72 30 -5 0 -18 -17 -28 -37 -21 -44 -29 -177 -12 -223 14 -40
-3 -79 -51 -122 -20 -18 -54 -54 -75 -81 l-39 -47 -22 47 c-12 27 -34 62 -49
80 -55 66 -149 62 -190 -8 -15 -26 -18 -54 -16 -202 0 -95 2 -192 5 -217 2
-25 6 -88 10 -140 12 -184 21 -293 40 -465 6 -53 3 -70 -28 -150 -44 -112 -56
-178 -52 -280 4 -104 27 -180 77 -256 72 -108 169 -170 340 -218 56 -15 104
-33 105 -38 4 -10 -44 -56 -114 -111 -56 -44 -55 -59 5 -64 70 -6 328 -2 399
6 122 14 203 46 203 81 0 9 38 11 142 8 125 -3 142 -5 144 -20 8 -55 107 -77
339 -78 240 0 372 15 391 46 6 11 -17 51 -53 89 -31 32 -83 106 -83 117 0 5
25 21 56 36 224 110 346 253 350 411 3 88 -14 157 -79 316 l-50 124 26 131
c15 71 29 142 31 158 3 15 10 53 15 85 6 31 13 75 16 97 3 22 7 49 10 60 2 11
7 43 10 70 4 28 9 61 11 75 3 14 7 68 11 121 5 90 4 97 -18 122 -43 48 -130
44 -179 -8 l-23 -24 -29 47 c-31 49 -83 101 -130 130 -15 9 -30 23 -34 31 -3
9 -8 70 -9 136 -3 123 -14 171 -40 181 -8 3 -36 -7 -63 -24 -88 -54 -84 -55
-197 53 -33 32 -80 67 -105 78 -100 45 -258 57 -394 31z"/>
</g>
</svg>
